<mxfile host="app.diagrams.net" agent="Mozilla/5.0 (Windows NT 10.0; Win64; x64) AppleWebKit/537.36 (KHTML, like Gecko) Chrome/134.0.0.0 YaBrowser/25.4.0.0 Safari/537.36" version="27.0.9">
  <diagram name="Page-1" id="tu3N3icy2xKlY-ze1ey9">
    <mxGraphModel dx="983" dy="578" grid="1" gridSize="10" guides="1" tooltips="1" connect="1" arrows="1" fold="1" page="1" pageScale="1" pageWidth="827" pageHeight="1169" background="light-dark(#FFFFFF,#FBFBFB)" math="0" shadow="0">
      <root>
        <mxCell id="0" />
        <mxCell id="1" parent="0" />
        <mxCell id="LH9CjniSUhLzyW_SUJpp-18" style="edgeStyle=orthogonalEdgeStyle;rounded=0;orthogonalLoop=1;jettySize=auto;html=1;exitX=0.5;exitY=1;exitDx=0;exitDy=0;exitPerimeter=0;entryX=0.5;entryY=0;entryDx=0;entryDy=0;strokeColor=light-dark(#000000,#010101);" edge="1" parent="1" source="LH9CjniSUhLzyW_SUJpp-1" target="LH9CjniSUhLzyW_SUJpp-13">
          <mxGeometry relative="1" as="geometry">
            <Array as="points">
              <mxPoint x="590" y="280" />
              <mxPoint x="460" y="280" />
            </Array>
          </mxGeometry>
        </mxCell>
        <mxCell id="LH9CjniSUhLzyW_SUJpp-20" value="" style="edgeStyle=orthogonalEdgeStyle;rounded=0;orthogonalLoop=1;jettySize=auto;html=1;strokeColor=light-dark(#000000,#010101);" edge="1" parent="1" source="LH9CjniSUhLzyW_SUJpp-1" target="LH9CjniSUhLzyW_SUJpp-13">
          <mxGeometry relative="1" as="geometry" />
        </mxCell>
        <mxCell id="LH9CjniSUhLzyW_SUJpp-1" value="" style="strokeWidth=2;html=1;shape=mxgraph.flowchart.terminator;whiteSpace=wrap;fillColor=light-dark(#FFFFFF,#FEFEFE);strokeColor=light-dark(#000000,#000000);fontColor=light-dark(#000000,#010101);" vertex="1" parent="1">
          <mxGeometry x="470" y="120" width="240" height="120" as="geometry" />
        </mxCell>
        <mxCell id="LH9CjniSUhLzyW_SUJpp-2" value="&lt;font style=&quot;font-size: 20px;&quot;&gt;Начало&lt;/font&gt;" style="text;html=1;align=center;verticalAlign=middle;resizable=0;points=[];autosize=1;strokeColor=none;fillColor=none;fontColor=light-dark(#000000,#010101);" vertex="1" parent="1">
          <mxGeometry x="535" y="170" width="90" height="40" as="geometry" />
        </mxCell>
        <mxCell id="LH9CjniSUhLzyW_SUJpp-4" value="&lt;font style=&quot;color: light-dark(rgb(0, 0, 0), rgb(0, 0, 0)); font-size: 20px;&quot;&gt;Объединение признаков&lt;/font&gt;&lt;div&gt;&lt;font style=&quot;&quot;&gt;&lt;font color=&quot;#000000&quot;&gt;&lt;span style=&quot;font-size: 20px;&quot;&gt;конкатенация, усреднение и др&lt;/span&gt;&lt;/font&gt;&lt;/font&gt;&lt;/div&gt;" style="rounded=0;whiteSpace=wrap;html=1;fillColor=light-dark(#FFFFFF,#FBFBFB);strokeColor=light-dark(#000000,#000000);strokeWidth=2;" vertex="1" parent="1">
          <mxGeometry x="480" y="585" width="240" height="120" as="geometry" />
        </mxCell>
        <mxCell id="LH9CjniSUhLzyW_SUJpp-5" value="" style="edgeStyle=orthogonalEdgeStyle;rounded=0;orthogonalLoop=1;jettySize=auto;html=1;" edge="1" parent="1" source="LH9CjniSUhLzyW_SUJpp-6" target="LH9CjniSUhLzyW_SUJpp-8">
          <mxGeometry relative="1" as="geometry" />
        </mxCell>
        <mxCell id="LH9CjniSUhLzyW_SUJpp-6" value="&lt;font style=&quot;color: light-dark(rgb(0, 0, 0), rgb(0, 0, 0)); font-size: 20px;&quot;&gt;Параметры SVM, порог, обученная модель&lt;/font&gt;" style="rounded=0;whiteSpace=wrap;html=1;fillColor=light-dark(#FFFFFF,#FBFBFB);strokeColor=light-dark(#000000,#000000);strokeWidth=2;" vertex="1" parent="1">
          <mxGeometry x="480" y="765" width="240" height="120" as="geometry" />
        </mxCell>
        <mxCell id="LH9CjniSUhLzyW_SUJpp-7" value="" style="endArrow=classic;html=1;rounded=0;strokeColor=light-dark(#000000,#000000);entryX=0.5;entryY=0;entryDx=0;entryDy=0;" edge="1" parent="1">
          <mxGeometry width="50" height="50" relative="1" as="geometry">
            <mxPoint x="599.5" y="705" as="sourcePoint" />
            <mxPoint x="599.5" y="765" as="targetPoint" />
          </mxGeometry>
        </mxCell>
        <mxCell id="LH9CjniSUhLzyW_SUJpp-27" value="" style="edgeStyle=orthogonalEdgeStyle;rounded=0;orthogonalLoop=1;jettySize=auto;html=1;" edge="1" parent="1" source="LH9CjniSUhLzyW_SUJpp-8" target="LH9CjniSUhLzyW_SUJpp-26">
          <mxGeometry relative="1" as="geometry" />
        </mxCell>
        <mxCell id="LH9CjniSUhLzyW_SUJpp-8" value="&lt;font style=&quot;color: light-dark(rgb(0, 0, 0), rgb(0, 0, 0)); font-size: 24px;&quot;&gt;Классификация с помощью SVM (Scikit-learn, скрипт)&lt;/font&gt;" style="rounded=0;whiteSpace=wrap;html=1;fillColor=light-dark(#FFFFFF,#FBFBFB);strokeColor=light-dark(#000000,#000000);strokeWidth=2;" vertex="1" parent="1">
          <mxGeometry x="480" y="945" width="240" height="120" as="geometry" />
        </mxCell>
        <mxCell id="LH9CjniSUhLzyW_SUJpp-9" value="" style="endArrow=classic;html=1;rounded=0;strokeColor=light-dark(#000000,#000000);entryX=0.5;entryY=0;entryDx=0;entryDy=0;" edge="1" parent="1">
          <mxGeometry width="50" height="50" relative="1" as="geometry">
            <mxPoint x="599.5" y="885" as="sourcePoint" />
            <mxPoint x="599.5" y="945" as="targetPoint" />
          </mxGeometry>
        </mxCell>
        <mxCell id="LH9CjniSUhLzyW_SUJpp-10" value="" style="endArrow=classic;html=1;rounded=0;strokeColor=light-dark(#000000,#000000);entryX=0.5;entryY=0;entryDx=0;entryDy=0;" edge="1" parent="1">
          <mxGeometry width="50" height="50" relative="1" as="geometry">
            <mxPoint x="589.5" y="1065" as="sourcePoint" />
            <mxPoint x="589.5" y="1125" as="targetPoint" />
          </mxGeometry>
        </mxCell>
        <mxCell id="LH9CjniSUhLzyW_SUJpp-11" value="&lt;font style=&quot;color: light-dark(rgb(0, 0, 0), rgb(3, 3, 3));&quot;&gt;&lt;span style=&quot;font-size: 24px;&quot;&gt;Конец&lt;/span&gt;&lt;/font&gt;" style="strokeWidth=2;html=1;shape=mxgraph.flowchart.terminator;whiteSpace=wrap;fillColor=light-dark(#FFFFFF,#FEFEFE);strokeColor=light-dark(#000000,#000000);fontColor=light-dark(#000000,#010101);" vertex="1" parent="1">
          <mxGeometry x="470" y="1300" width="240" height="120" as="geometry" />
        </mxCell>
        <mxCell id="LH9CjniSUhLzyW_SUJpp-13" value="&lt;font style=&quot;color: light-dark(rgb(0, 0, 0), rgb(0, 0, 0)); font-size: 20px;&quot;&gt;Сниженные признаки SURF&lt;/font&gt;" style="rounded=0;whiteSpace=wrap;html=1;fillColor=light-dark(#FFFFFF,#FBFBFB);strokeColor=light-dark(#000000,#000000);strokeWidth=2;" vertex="1" parent="1">
          <mxGeometry x="340" y="320" width="240" height="120" as="geometry" />
        </mxCell>
        <mxCell id="LH9CjniSUhLzyW_SUJpp-17" value="" style="edgeStyle=orthogonalEdgeStyle;rounded=0;orthogonalLoop=1;jettySize=auto;html=1;" edge="1" parent="1" source="LH9CjniSUhLzyW_SUJpp-15" target="LH9CjniSUhLzyW_SUJpp-13">
          <mxGeometry relative="1" as="geometry" />
        </mxCell>
        <mxCell id="LH9CjniSUhLzyW_SUJpp-15" value="&lt;font style=&quot;color: light-dark(rgb(0, 0, 0), rgb(0, 0, 0)); font-size: 20px;&quot;&gt;Сниженные признаки MobileNetV2&lt;/font&gt;" style="rounded=0;whiteSpace=wrap;html=1;fillColor=light-dark(#FFFFFF,#FBFBFB);strokeColor=light-dark(#000000,#000000);strokeWidth=2;" vertex="1" parent="1">
          <mxGeometry x="660" y="320" width="240" height="120" as="geometry" />
        </mxCell>
        <mxCell id="LH9CjniSUhLzyW_SUJpp-16" value="" style="endArrow=classic;html=1;rounded=0;" edge="1" parent="1">
          <mxGeometry width="50" height="50" relative="1" as="geometry">
            <mxPoint x="420" y="230" as="sourcePoint" />
            <mxPoint x="420" y="300" as="targetPoint" />
          </mxGeometry>
        </mxCell>
        <mxCell id="LH9CjniSUhLzyW_SUJpp-19" value="" style="endArrow=classic;html=1;rounded=0;strokeColor=light-dark(#000000,#030303);entryX=0.5;entryY=0;entryDx=0;entryDy=0;" edge="1" parent="1" target="LH9CjniSUhLzyW_SUJpp-15">
          <mxGeometry width="50" height="50" relative="1" as="geometry">
            <mxPoint x="590" y="280" as="sourcePoint" />
            <mxPoint x="770" y="290" as="targetPoint" />
            <Array as="points">
              <mxPoint x="780" y="280" />
            </Array>
          </mxGeometry>
        </mxCell>
        <mxCell id="LH9CjniSUhLzyW_SUJpp-21" value="" style="edgeStyle=orthogonalEdgeStyle;rounded=0;orthogonalLoop=1;jettySize=auto;html=1;" edge="1" parent="1">
          <mxGeometry relative="1" as="geometry">
            <mxPoint x="760" y="500" as="sourcePoint" />
            <mxPoint x="630" y="580" as="targetPoint" />
          </mxGeometry>
        </mxCell>
        <mxCell id="LH9CjniSUhLzyW_SUJpp-23" value="" style="endArrow=classic;html=1;rounded=0;strokeColor=light-dark(#000000,#030303);exitX=0.668;exitY=1.003;exitDx=0;exitDy=0;exitPerimeter=0;entryX=0.463;entryY=0.01;entryDx=0;entryDy=0;entryPerimeter=0;" edge="1" parent="1" source="LH9CjniSUhLzyW_SUJpp-13" target="LH9CjniSUhLzyW_SUJpp-4">
          <mxGeometry width="50" height="50" relative="1" as="geometry">
            <mxPoint x="500" y="480" as="sourcePoint" />
            <mxPoint x="550" y="580" as="targetPoint" />
            <Array as="points">
              <mxPoint x="500" y="520" />
              <mxPoint x="591" y="520" />
            </Array>
          </mxGeometry>
        </mxCell>
        <mxCell id="LH9CjniSUhLzyW_SUJpp-25" value="" style="endArrow=none;html=1;rounded=0;strokeColor=light-dark(#000000,#000000);" edge="1" parent="1">
          <mxGeometry width="50" height="50" relative="1" as="geometry">
            <mxPoint x="590" y="520" as="sourcePoint" />
            <mxPoint x="770" y="440" as="targetPoint" />
            <Array as="points">
              <mxPoint x="770" y="520" />
            </Array>
          </mxGeometry>
        </mxCell>
        <mxCell id="LH9CjniSUhLzyW_SUJpp-26" value="&lt;font style=&quot;color: light-dark(rgb(0, 0, 0), rgb(0, 0, 0)); font-size: 24px;&quot;&gt;Класс распознанного объекта&lt;/font&gt;" style="rounded=0;whiteSpace=wrap;html=1;fillColor=light-dark(#FFFFFF,#FBFBFB);strokeColor=light-dark(#000000,#000000);strokeWidth=2;" vertex="1" parent="1">
          <mxGeometry x="480" y="1120" width="240" height="120" as="geometry" />
        </mxCell>
        <mxCell id="LH9CjniSUhLzyW_SUJpp-28" value="" style="endArrow=classic;html=1;rounded=0;strokeColor=light-dark(#000000,#000000);entryX=0.5;entryY=0;entryDx=0;entryDy=0;" edge="1" parent="1">
          <mxGeometry width="50" height="50" relative="1" as="geometry">
            <mxPoint x="589.38" y="1240" as="sourcePoint" />
            <mxPoint x="589.38" y="1300" as="targetPoint" />
          </mxGeometry>
        </mxCell>
      </root>
    </mxGraphModel>
  </diagram>
</mxfile>
